<svg xmlns="http://www.w3.org/2000/svg" width="26" height="26" viewBox="0 0 26 26" fill="none">
<path d="M22.1532 22.1538H18.3008V16.1205C18.3008 14.6819 18.2752 12.8299 16.2972 12.8299C14.2908 12.8299 13.9838 14.3973 13.9838 16.0158V22.1534H10.1314V9.74664H13.8297V11.4421H13.8814C14.2515 10.8093 14.7864 10.2887 15.4289 9.93578C16.0715 9.58286 16.7978 9.41084 17.5304 9.43803C21.4349 9.43803 22.1548 12.0064 22.1548 15.3476L22.1532 22.1538ZM5.7846 8.05072C5.34244 8.05081 4.91017 7.91976 4.54249 7.67417C4.17481 7.42858 3.88822 7.07947 3.71894 6.67098C3.54966 6.2625 3.5053 5.81299 3.59148 5.3793C3.67767 4.94561 3.89052 4.54721 4.20312 4.23449C4.51571 3.92177 4.91402 3.70877 5.34767 3.62243C5.78131 3.53609 6.23081 3.58028 6.63935 3.74942C7.04788 3.91856 7.39708 4.20505 7.64279 4.57266C7.88851 4.94027 8.01971 5.37249 8.01979 5.81466C8.01984 6.10825 7.96206 6.39898 7.84976 6.67024C7.73746 6.9415 7.57285 7.18799 7.36529 7.39563C7.15773 7.60327 6.91129 7.76799 6.64008 7.88039C6.36887 7.99279 6.07818 8.05067 5.7846 8.05072ZM7.71078 22.1538H3.85439V9.74664H7.71078V22.1538ZM24.0738 0.00177142H1.91857C1.41571 -0.00390356 0.931144 0.190302 0.571393 0.541713C0.211642 0.893123 0.00613715 1.37299 0 1.87586V24.1238C0.0059271 24.6269 0.211312 25.1071 0.57105 25.4588C0.930789 25.8106 1.41546 26.0052 1.91857 25.9998H24.0738C24.5779 26.0062 25.0639 25.8121 25.4251 25.4604C25.7863 25.1086 25.993 24.6279 26 24.1238V1.87426C25.9928 1.37039 25.7859 0.889975 25.4247 0.538573C25.0636 0.187171 24.5777 -0.00647988 24.0738 0.000165557" fill="#3B525C"/>
</svg>